<svg xmlns="http://www.w3.org/2000/svg" viewBox="0 0 512 512">
  <rect width="512" height="512" rx="116" fill="#07090C"/>
  <g id="risk-mark" fill="#C8A96A">
    <g transform="translate(137 123) scale(0.9223300971)">
      <g transform="translate(19 302.234375)">
        <path d="M 278.460938 -238.769531 C 278.460938 -222.933594 272.796875 -208.292969 261.476562 -194.855469 C 250.378906 -181.6875 235.296875 -171.585938 216.234375 -164.546875 C 201.433594 -159.035156 179.40625 -157.453125 150.148438 -159.808594 L 165.011719 -161.082031 C 184.101562 -155.714844 196.800781 -148.691406 203.117188 -140.007812 C 209.386719 -131.386719 212.519531 -116.707031 212.519531 -95.96875 C 212.519531 -91.355469 212.375 -87.160156 212.085938 -83.378906 L 209.144531 -46.414062 C 208.316406 -35.914062 207.898438 -28.070312 207.898438 -22.890625 C 207.898438 -15.75 209.511719 -12.179688 212.730469 -12.179688 C 213.675781 -12.179688 214.585938 -12.554688 215.460938 -13.304688 C 216.488281 -12.085938 216.207031 -12.621094 214.621094 -14.910156 C 214.621094 -19.320312 216.183594 -23.285156 219.304688 -26.796875 C 222.589844 -30.492188 226.558594 -32.339844 231.210938 -32.339844 C 238.628906 -32.339844 242.339844 -28.488281 242.339844 -20.789062 C 242.339844 -13.304688 238.472656 -7.015625 230.738281 -1.917969 C 223.703125 2.722656 215.320312 5.039062 205.589844 5.039062 C 174.089844 5.039062 158.339844 -10.988281 158.339844 -43.050781 C 158.339844 -50.535156 158.910156 -59.140625 160.054688 -68.863281 L 163.835938 -101.203125 C 164.933594 -110.519531 165.480469 -118.15625 165.480469 -124.109375 C 165.480469 -135.679688 160.628906 -143.265625 150.925781 -146.878906 C 147.210938 -148.113281 138.035156 -149.199219 123.386719 -150.128906 L 72.265625 -20.890625 C 70.917969 -19.703125 70.628906 -19.109375 71.398438 -19.109375 C 71.398438 -18.03125 74.765625 -17.109375 81.496094 -16.339844 C 85.496094 -15.808594 87.765625 -15.539062 88.296875 -15.539062 L 97.957031 -15.960938 C 103.210938 -15.960938 105.839844 -13.511719 105.839844 -8.609375 C 105.839844 -2.308594 101.011719 0.839844 91.351562 0.839844 C 81.507812 0.839844 64.945312 0.558594 41.664062 0 C 29.945312 -0.28125 23.546875 -0.421875 22.46875 -0.421875 C 19.21875 -0.421875 14.289062 -0.214844 7.675781 0.199219 C 0.847656 0.625 -4.300781 0.839844 -7.769531 0.839844 C -14.910156 0.839844 -18.480469 -2.03125 -18.480469 -7.769531 C -18.480469 -12.828125 -12.863281 -15.554688 -1.632812 -15.957031 C 8.328125 -16.214844 14.933594 -17.386719 18.1875 -19.480469 C 20.527344 -20.648438 24.246094 -27.609375 29.347656 -40.363281 L 122.25 -277.445312 C 123.070312 -279.089844 123.480469 -280.335938 123.480469 -281.191406 C 123.480469 -283.011719 116.515625 -283.921875 102.589844 -283.921875 C 96.636719 -285.109375 93.660156 -287.839844 93.660156 -292.109375 C 93.660156 -297.203125 96.476562 -300.0625 102.109375 -300.6875 C 104.824219 -300.988281 113.472656 -301.140625 128.066406 -301.140625 C 128.066406 -301.140625 130.222656 -300.996094 134.539062 -300.707031 C 138.621094 -300.4375 142.863281 -300.300781 147.261719 -300.300781 L 167.894531 -299.878906 C 196.890625 -299.316406 213.953125 -298.75 219.082031 -298.179688 C 227.800781 -297.578125 236.234375 -295.316406 244.390625 -291.386719 C 267.105469 -280.644531 278.460938 -263.105469 278.460938 -238.769531 Z M 227.640625 -238.769531 C 227.640625 -260.851562 221.402344 -274.652344 208.921875 -280.171875 C 204.558594 -282.109375 195.1875 -283.078125 180.808594 -283.078125 C 178.339844 -283.078125 176.628906 -282.265625 175.679688 -280.636719 C 173.011719 -276.097656 170.890625 -271.863281 169.316406 -267.925781 L 128.625 -166.941406 C 128.558594 -167.925781 130.695312 -168.421875 135.03125 -168.421875 C 162.398438 -168.421875 184.777344 -175.125 202.175781 -188.539062 C 219.152344 -201.625 227.640625 -218.371094 227.640625 -238.769531 Z"/>
      </g>
    </g>
    <g transform="translate(99 105) scale(0.4637223975)">
      <g transform="translate(-45 309.234375)">
        <path d="M 332.21875 -297.988281 C 332.21875 -295.535156 322.394531 -283.308594 302.75 -261.316406 L 78.894531 -9.742188 C 76.816406 -7.402344 74.929688 -4.964844 73.238281 -2.429688 C 69.222656 1.988281 65.597656 4.199219 62.371094 4.199219 C 59.695312 4.199219 56.464844 3.027344 52.675781 0.683594 C 48.078125 -2.164062 45.78125 -5.121094 45.78125 -8.191406 C 45.78125 -10.066406 48.179688 -13.742188 52.976562 -19.226562 L 284.191406 -278.347656 C 275.148438 -275.625 260.847656 -274.261719 241.289062 -274.261719 C 217.730469 -274.261719 201.6875 -275.945312 193.15625 -279.3125 C 194.585938 -278.523438 195.300781 -266.546875 195.300781 -243.390625 C 195.300781 -215.558594 187.214844 -191.574219 171.042969 -171.433594 C 154.59375 -150.945312 134.75 -140.699219 111.511719 -140.699219 C 95.546875 -140.699219 82.5625 -146.957031 72.550781 -159.46875 C 62.824219 -171.628906 57.960938 -187.28125 57.960938 -206.429688 C 57.960938 -222.332031 61.558594 -237.917969 68.75 -253.1875 C 75.945312 -268.453125 85.929688 -281.375 98.710938 -291.953125 C 111.863281 -302.839844 126.910156 -308.28125 143.851562 -308.28125 C 148.761719 -308.28125 154.785156 -307.386719 161.929688 -305.601562 C 195.949219 -297.027344 223.105469 -292.738281 243.390625 -292.738281 C 267.382812 -292.738281 288.59375 -296.261719 307.015625 -303.304688 C 314.058594 -306.0625 318.890625 -307.441406 321.511719 -307.441406 C 328.648438 -307.441406 332.21875 -304.289062 332.21875 -297.988281 Z M 314.578125 -98.488281 C 314.578125 -70.152344 306.242188 -45.011719 289.570312 -23.078125 C 274.523438 -3.210938 254.929688 6.71875 230.789062 6.71875 C 214.574219 6.71875 201.460938 0.621094 191.453125 -11.578125 C 181.695312 -23.46875 176.820312 -38.71875 176.820312 -57.328125 C 176.820312 -84.882812 185.046875 -108.871094 201.5 -129.292969 C 218.234375 -150.058594 238.074219 -160.441406 261.03125 -160.441406 C 276.640625 -160.441406 289.523438 -154.507812 299.667969 -142.640625 C 309.609375 -131.019531 314.578125 -116.300781 314.578125 -98.488281 Z M 156.238281 -267.328125 C 156.238281 -283.710938 152.109375 -291.898438 143.851562 -291.898438 C 133.484375 -291.898438 123.3125 -281.15625 113.335938 -259.667969 C 102.179688 -235.449219 96.601562 -210.28125 96.601562 -184.171875 C 96.601562 -166.109375 101.148438 -157.078125 110.25 -157.078125 C 122.128906 -157.078125 133.097656 -170.101562 143.152344 -196.140625 C 151.878906 -218.769531 156.238281 -242.5 156.238281 -267.328125 Z M 275.101562 -121.171875 C 275.101562 -136.710938 270.550781 -144.480469 261.449219 -144.480469 C 251.164062 -144.480469 240.875 -132.386719 230.582031 -108.199219 C 220.222656 -83.660156 215.039062 -59.980469 215.039062 -37.171875 C 215.039062 -18.550781 219.730469 -9.238281 229.109375 -9.238281 C 239.699219 -9.238281 249.855469 -20.371094 259.578125 -42.632812 C 269.925781 -66.320312 275.101562 -92.5 275.101562 -121.171875 Z"/>
      </g>
    </g>
  </g>
</svg>
